<?xml version="1.0" encoding="UTF-8" standalone="no"?>
<!-- Created with Inkscape (http://www.inkscape.org/) -->

<svg
   width="1000"
   height="550"
   viewBox="0 0 1000 720"
   version="1.1"
   id="svg1"
   xml:space="preserve"
   inkscape:version="1.3.2 (091e20e, 2023-11-25, custom)"
   sodipodi:docname="background.svg"
   xmlns:inkscape="http://www.inkscape.org/namespaces/inkscape"
   xmlns:sodipodi="http://sodipodi.sourceforge.net/DTD/sodipodi-0.dtd"
   xmlns="http://www.w3.org/2000/svg"
   xmlns:svg="http://www.w3.org/2000/svg"><sodipodi:namedview
     id="namedview1"
     pagecolor="#000000"
     bordercolor="#000000"
     borderopacity="0"
     inkscape:showpageshadow="2"
     inkscape:pageopacity="0.0"
     inkscape:pagecheckerboard="0"
     inkscape:deskcolor="#d1d1d1"
     inkscape:document-units="mm"
     inkscape:zoom="0.72426347"
     inkscape:cx="396.95499"
     inkscape:cy="434.23424"
     inkscape:window-width="1920"
     inkscape:window-height="1009"
     inkscape:window-x="-8"
     inkscape:window-y="-8"
     inkscape:window-maximized="1"
     inkscape:current-layer="layer1" /><defs
     id="defs1" /><g
     inkscape:label="Capa 1"
     inkscape:groupmode="layer"
     id="layer1"><path
       style="fill:#c87137;fill-opacity:1"
       d="m 147.73629,102.17276 c -10.351,-0.40679 -18.02778,8.94043 -27.61426,12.42642 -2.20547,0.80199 -4.72465,0.50915 -6.90356,1.38071 -2.49168,0.99668 -4.50326,2.94199 -6.90357,4.14214 -4.8251,2.41256 -26.571178,8.95955 -28.994971,13.80713 -2.624539,5.24908 3.91805,14.51558 5.522852,19.32999 0.552285,1.65685 -0.552285,3.86599 0,5.52285 0.325437,0.97631 0.653014,2.03372 1.380713,2.76142 0.325437,0.32544 1.235173,-0.43662 1.380713,0 0.861376,2.58413 0.173676,5.87021 1.380713,8.28428 0.205825,0.41165 1.055276,-0.32544 1.380713,0 0.325437,0.32544 -0.205824,0.96907 0,1.38071 0.58216,1.16432 2.179267,1.59711 2.761426,2.76143 3.598945,7.19789 8.735789,14.71015 12.426421,22.09141 1.47283,2.94567 1.7158,5.04916 4.14214,8.28428 0.011,0.0147 13.64568,12.34569 13.80713,12.42641 0.41164,0.20583 0.92047,0 1.38071,0 0.92047,0.46024 1.90514,0.80986 2.76142,1.38072 3.61996,2.4133 6.70858,5.45785 11.04571,6.90356 1.74648,0.58216 3.73687,-0.44649 5.52285,0 3.06357,0.76589 4.84986,1.95312 8.28428,1.38072 8.72012,-1.45336 10.93833,-8.17691 16.56856,-13.80713 1.17338,-1.17339 2.84635,-1.72481 4.14213,-2.76143 3.01961,-2.41569 5.19206,-5.96511 8.28428,-8.28428 4.2655,-3.19912 9.35821,-5.31833 13.80713,-8.28428 1.08312,-0.72208 1.52648,-2.34977 2.76143,-2.76142 0.87324,-0.29108 1.93813,0.41165 2.76142,0 0.41165,-0.20583 -0.20582,-0.96907 0,-1.38072 0.81557,-1.63112 3.12671,-2.61899 4.14214,-4.14214 2.75843,-4.13763 1.54556,-6.01737 2.76143,-9.66499 0.20582,-0.61747 1.22285,-0.74927 1.38071,-1.38071 2.89812,-11.59245 -3.49921,-32.58905 -6.90356,-42.8021 -0.15294,-0.45883 -2.4417,-5.20313 -2.76143,-5.52286 -0.32544,-0.32543 -1.17489,0.41165 -1.38071,0 -0.41165,-0.82329 0.41165,-1.93812 0,-2.76142 -0.20583,-0.41165 -1.05528,0.32544 -1.38071,0 -0.32544,-0.32544 0.25529,-0.99777 0,-1.38071 -1.08312,-1.62468 -3.2689,-2.39566 -4.14214,-4.14214 -0.20583,-0.41165 0.32543,-1.05528 0,-1.38072 -0.71465,-0.71465 -4.8082,-0.66606 -5.52286,-1.38071 -0.32543,-0.32544 0.41165,-1.17489 0,-1.38071 -0.82329,-0.41165 -1.88818,0.29108 -2.76142,0 -2.19995,-0.73332 -4.33062,-3.4989 -6.90357,-4.14214 -4.13728,-1.03432 -6.57923,0.85252 -11.0457,-1.38071 -0.41165,-0.20583 0.41165,-1.17489 0,-1.38072 -1.70518,-0.85259 -6.98996,1.29432 -8.28428,0 -0.32544,-0.32543 0.32544,-1.05527 0,-1.38071 -0.65087,-0.65087 -2.11055,0.65087 -2.76142,0 -0.32544,-0.32544 0,-0.92048 0,-1.38071 -1.84096,-0.46024 -3.68191,-0.92048 -5.52286,-1.38072 z"
       id="path140" /><path
       style="fill:#c87137;fill-opacity:1"
       d="m 1001.0169,285.8076 c 0,0.92047 0.6509,2.11055 0,2.76142 -0.4916,0.4916 -4.0935,1.33211 -4.1421,1.38071 -0.32544,0.32544 0.32544,1.05528 0,1.38072 -0.65087,0.65087 -1.93813,-0.41165 -2.76143,0 -1.16432,0.58216 -1.5971,2.17926 -2.76142,2.76142 -2.84878,1.42439 -6.73529,1.78486 -9.66499,2.76143 -5.13493,1.71164 -8.85011,7.18648 -13.80713,9.66499 -0.8233,0.41165 -1.93813,-0.41165 -2.76143,0 -1.48422,0.74211 -1.78548,3.24995 -4.14214,2.76143 -3.27042,1.30817 -6.39456,1.45325 -9.66499,2.76142 -7.01761,2.80703 6.96358,-0.015 -4.14214,2.76143 -1.16591,0.29148 -4.31583,-0.60351 -5.52285,0 -4.06314,2.03159 2.14326,1.38071 -4.14214,1.38071 -12.42642,0 -24.85283,0 -37.27925,0 -4.11499,0 -9.79659,-1.00263 -13.80713,0 -4.2596,1.0649 -9.03377,4.35255 -13.80713,2.76143 -8.57023,-2.85673 4.58883,0.11167 -6.90357,-2.76143 -2.23248,-0.55812 -4.67108,0.55812 -6.90356,0 -1.99679,-0.4992 -3.55141,-2.16999 -5.52285,-2.76142 -5.05131,-1.5154 -12.58341,-3.24783 -17.94927,-4.14214 -7.85131,-1.30856 -17.77736,-2.18658 -24.85284,-6.90357 -0.38294,-0.25529 0.32544,-1.05527 0,-1.38071 -3.64243,-3.64244 -9.69944,-4.99813 -13.80713,-8.28428 -5.56764,-4.45411 -10.93157,-9.29755 -16.56855,-13.80713 -6.56239,-5.24991 -14.08053,-8.18856 -19.32999,-15.18784 -2.60832,-3.47777 -3.40565,-7.51704 -5.52285,-11.04571 -1.33869,-2.23115 -4.53986,-5.82679 -5.52285,-8.28428 -1.78454,-4.46135 -2.45498,-9.30804 -4.14214,-13.80713 -2.15471,-5.74588 -4.99937,-10.85597 -6.90356,-16.56855 -1.37553,-4.12657 0.33167,-14.45248 1.38071,-17.94927 0.59143,-1.97144 2.31493,-3.51362 2.76142,-5.52285 0.4992,-2.24639 -0.49919,-4.65718 0,-6.90357 0.76036,-3.4216 3.17923,-6.29478 4.14214,-9.66499 0.32825,-1.14887 1.85857,-8.16023 2.76143,-9.66499 0.66974,-1.11624 1.98038,-1.72003 2.76143,-2.76143 2.79412,-3.72551 -0.0231,-2.26264 2.76142,-6.90356 2.56025,-4.26709 12.82417,-17.90241 16.56856,-20.7107 10.12794,-7.59595 27.37146,-8.95524 38.65996,-11.0457 5.95228,-1.10228 12.01334,-1.57424 17.94927,-2.76143 10.29123,-2.05824 20.06601,-6.32053 30.37569,-8.28428 33.15219,-6.3147 -1.3296,4.1251 27.61426,-5.52285 4.14214,-0.92047 8.23258,-2.11622 12.42642,-2.76142 11.32771,-1.74273 24.42125,0 35.89853,0 6.21597,0 20.36358,-1.49642 24.85284,0 0.61747,0.20582 0.79855,1.08963 1.38071,1.38071 4.05061,2.0253 10.84776,-1.44669 15.18784,0 4.30965,1.43655 -0.46023,0.92047 1.38072,2.76143 1.02912,1.02912 2.93117,0.5734 4.14214,1.38071 1.79771,1.19847 3.61865,3.19004 5.52285,4.14214 2.00334,1.00167 8.82124,-0.10227 11.0457,1.38071 4.63029,3.08686 0.914,2.76143 4.14219,2.76143"
       id="path141" /><path
       style="fill:#c87137;fill-opacity:1"
       d="m 381.07679,490.15312 c -5.36942,3.85783 -4.30006,-3.49126 -6.90356,-4.14214 -8.77263,-2.19316 -22.67464,-1.38071 -31.7564,-1.38071 -12.88666,0 -25.77331,0 -38.65997,0 -9.33742,0 -19.82245,-1.52875 -28.99497,0 -1.01512,0.16919 -1.7463,1.21153 -2.76143,1.38071 -2.26987,0.37832 -4.72046,-0.7277 -6.90356,0 -4.74602,1.58201 -10.22707,4.5307 -15.18784,5.52286 -1.3539,0.27078 -2.86018,-0.51279 -4.14214,0 -1.20865,0.48345 -1.59711,2.17926 -2.76143,2.76142 -0.8233,0.41165 -1.90678,-0.34185 -2.76142,0 -5.77915,2.31166 -14.79376,7.8902 -19.32999,12.42642 -1.62718,1.62718 -2.51495,3.89566 -4.14214,5.52285 -3.60163,3.60163 -10.19847,4.67563 -13.80713,8.28428 -1.74598,1.74599 -1.82068,5.02209 -2.76142,6.90356 -3.15949,6.31898 0.57226,-5.85894 -2.76143,4.14214 -1.55922,4.67766 0,21.94875 0,27.61426 0,9.20476 0,18.40951 0,27.61426 0,3.80163 -0.91401,8.77037 0,12.42642 0.56917,2.27669 0.33121,4.80456 1.38071,6.90357 1.49882,2.99763 2.75562,4.1247 4.14214,8.28427 1.50316,4.50946 1.25022,10.65423 2.76143,15.18785 1.29439,3.88317 3.41032,6.4962 5.52285,9.66499 0.63867,0.958 -0.5192,3.10373 0,4.14214 1.78843,3.57685 1.95914,6.67969 4.14214,11.0457 0.87324,1.74648 3.13752,2.46778 4.14214,4.14214 0.7488,1.248 0.72984,2.84039 1.38071,4.14214 0.80703,1.61405 18.99073,21.80869 19.32999,22.09141 3.93766,3.28138 8.00775,7.01379 12.42641,9.66499 1.76493,1.05896 3.87626,1.52648 5.52285,2.76142 1.0414,0.78105 1.59711,2.17927 2.76143,2.76143 4.08383,2.04192 23.86671,1.83157 30.37569,2.76143 7.61878,1.08839 14.66874,5.41903 22.09141,6.90356 4.18733,0.83747 11.38317,-1.90233 15.18784,0 8.08423,4.04212 15.95537,2.65178 24.85283,1.38072 2.53906,-0.36273 5.76347,0.6302 8.28428,0 4.18087,-1.04522 8.20337,-1.91682 12.42642,-2.76143 2.03196,-0.40639 4.98415,0.76776 6.90356,0 7.79734,-3.11893 15.26217,-8.99322 23.47212,-11.04571 0.893,-0.22324 1.99555,0.51059 2.76143,0 0.85628,-0.57085 0.52443,-2.19057 1.38071,-2.76142 0.76589,-0.51059 1.86844,0.22325 2.76143,0 2.29403,-0.57351 6.84484,-3.72356 8.28428,-5.52285 5.86483,-7.33104 2.84799,-4.40183 5.52285,-12.42642 0.65087,-1.95262 2.11055,-3.57023 2.76143,-5.52285 0.83497,-2.50493 -0.64278,-5.71318 0,-8.28428 2.72741,-10.90964 -0.45043,-22.1503 1.38071,-33.13711 1.65563,-9.93379 1.38071,-18.78548 1.38071,-28.99498 0,-2.80174 -0.68726,-6.91595 0,-9.66499 1.78804,-7.15215 1.38072,-14.48193 1.38072,-22.09141 0,-8.547 2.47056,-22.67313 -1.38072,-30.37568 -1.29216,-2.58433 -3.16026,-5.33864 -4.14214,-8.28428 -1.21468,-3.64406 -1.0564,-6.57926 -4.14214,-9.66499 -1.17338,-1.17338 -3.14649,-1.4339 -4.14214,-2.76143 -0.55228,-0.73638 0.51059,-1.99554 0,-2.76142 -1.32677,-1.99016 -7.79018,-4.58545 -9.66499,-5.52286 -0.58216,-0.29108 -0.92047,-0.92047 -1.38071,-1.38071 -0.46024,-0.46024 -0.79855,-1.08963 -1.38071,-1.38071 -1.54934,-0.77467 -3.92351,-0.58104 -5.52285,-1.38071 -0.97358,-0.48679 -10.78208,-6.63994 -11.04571,-6.90357 -0.32544,-0.32544 0.32544,-1.05528 0,-1.38071 -1.4122,-1.4122 -3.41198,1.25788 -5.52285,-1.38072 -1.28578,-1.60722 -1.84095,-3.6819 -2.76143,-5.52285 z"
       id="path142" /></g></svg>
